<svg width="16" height="16" viewBox="0 0 16 16" fill="none" xmlns="http://www.w3.org/2000/svg">
<path d="M3 4.0625C3 3.75078 3.25078 3.5 3.5625 3.5H12.9375C13.2492 3.5 13.5 3.75078 13.5 4.0625C13.5 4.37422 13.2492 4.625 12.9375 4.625H3.5625C3.25078 4.625 3 4.37422 3 4.0625ZM3 7.8125C3 7.50078 3.25078 7.25 3.5625 7.25H12.9375C13.2492 7.25 13.5 7.50078 13.5 7.8125C13.5 8.12422 13.2492 8.375 12.9375 8.375H3.5625C3.25078 8.375 3 8.12422 3 7.8125ZM13.5 11.5625C13.5 11.8742 13.2492 12.125 12.9375 12.125H3.5625C3.25078 12.125 3 11.8742 3 11.5625C3 11.2508 3.25078 11 3.5625 11H12.9375C13.2492 11 13.5 11.2508 13.5 11.5625Z" fill="#006B52"/>
</svg>
